<svg width="285" height="16" viewBox="0 0 285 16" fill="none" xmlns="http://www.w3.org/2000/svg">
<path d="M5.5957 7.88086L9.39453 0.722656H11.1816L6.42578 9.46289V15H4.76562V9.54102L0 0.722656H1.81641L5.5957 7.88086ZM28.6289 9.62891C28.6289 10.5078 28.515 11.2923 28.2871 11.9824C28.0592 12.6725 27.7305 13.2552 27.3008 13.7305C26.8711 14.2057 26.3503 14.5703 25.7383 14.8242C25.1328 15.0716 24.446 15.1953 23.6777 15.1953C22.9616 15.1953 22.304 15.0716 21.7051 14.8242C21.1126 14.5703 20.5983 14.2057 20.1621 13.7305C19.7324 13.2552 19.3971 12.6725 19.1562 11.9824C18.9219 11.2923 18.8047 10.5078 18.8047 9.62891C18.8047 8.45703 19.0033 7.46094 19.4004 6.64062C19.7975 5.8138 20.3639 5.18555 21.0996 4.75586C21.8418 4.31966 22.724 4.10156 23.7461 4.10156C24.7227 4.10156 25.5755 4.31966 26.3047 4.75586C27.0404 5.19206 27.61 5.82357 28.0137 6.65039C28.4238 7.4707 28.6289 8.46354 28.6289 9.62891ZM20.4844 9.62891C20.4844 10.4883 20.5983 11.2337 20.8262 11.8652C21.054 12.4967 21.4056 12.985 21.8809 13.3301C22.3561 13.6751 22.9681 13.8477 23.7168 13.8477C24.459 13.8477 25.0677 13.6751 25.543 13.3301C26.0247 12.985 26.3796 12.4967 26.6074 11.8652C26.8353 11.2337 26.9492 10.4883 26.9492 9.62891C26.9492 8.77604 26.8353 8.04036 26.6074 7.42188C26.3796 6.79688 26.028 6.3151 25.5527 5.97656C25.0775 5.63802 24.4622 5.46875 23.707 5.46875C22.5938 5.46875 21.7767 5.83659 21.2559 6.57227C20.7415 7.30794 20.4844 8.32682 20.4844 9.62891ZM46.7695 4.29688V15H45.4414L45.207 13.4961H45.1191C44.8978 13.8672 44.6113 14.1797 44.2598 14.4336C43.9082 14.6875 43.5111 14.8763 43.0684 15C42.6322 15.1302 42.1667 15.1953 41.6719 15.1953C40.8255 15.1953 40.1159 15.0586 39.543 14.7852C38.9701 14.5117 38.5371 14.0885 38.2441 13.5156C37.9577 12.9427 37.8145 12.207 37.8145 11.3086V4.29688H39.4551V11.1914C39.4551 12.0833 39.6569 12.7507 40.0605 13.1934C40.4642 13.6296 41.0794 13.8477 41.9062 13.8477C42.7005 13.8477 43.332 13.6979 43.8008 13.3984C44.276 13.099 44.6178 12.6595 44.8262 12.0801C45.0345 11.4941 45.1387 10.778 45.1387 9.93164V4.29688H46.7695ZM61.5605 4.10156C61.7754 4.10156 62 4.11458 62.2344 4.14062C62.4688 4.16016 62.6771 4.18945 62.8594 4.22852L62.6543 5.73242C62.4785 5.68685 62.2832 5.65104 62.0684 5.625C61.8535 5.59896 61.6517 5.58594 61.4629 5.58594C61.0332 5.58594 60.6263 5.67383 60.2422 5.84961C59.8646 6.01888 59.5326 6.26628 59.2461 6.5918C58.9596 6.91081 58.735 7.29818 58.5723 7.75391C58.4095 8.20312 58.3281 8.70443 58.3281 9.25781V15H56.6973V4.29688H58.0449L58.2207 6.26953H58.2891C58.5104 5.8724 58.7773 5.51107 59.0898 5.18555C59.4023 4.85352 59.7637 4.58984 60.1738 4.39453C60.5905 4.19922 61.0527 4.10156 61.5605 4.10156ZM91.4844 11.1133C91.4844 11.9596 91.276 12.6888 90.8594 13.3008C90.4492 13.9128 89.8568 14.3815 89.082 14.707C88.3138 15.0326 87.3958 15.1953 86.3281 15.1953C85.8073 15.1953 85.3092 15.166 84.834 15.1074C84.3587 15.0488 83.9095 14.9642 83.4863 14.8535C83.0697 14.7363 82.6888 14.5964 82.3438 14.4336V12.2266C82.9232 12.4805 83.571 12.7116 84.2871 12.9199C85.0033 13.1217 85.7324 13.2227 86.4746 13.2227C87.0801 13.2227 87.5814 13.1445 87.9785 12.9883C88.3822 12.8255 88.6816 12.5977 88.877 12.3047C89.0723 12.0052 89.1699 11.6569 89.1699 11.2598C89.1699 10.8366 89.056 10.4785 88.8281 10.1855C88.6003 9.89258 88.2552 9.62565 87.793 9.38477C87.3372 9.13737 86.7643 8.8737 86.0742 8.59375C85.6055 8.40495 85.1562 8.1901 84.7266 7.94922C84.3034 7.70833 83.9258 7.42513 83.5938 7.09961C83.2617 6.77409 82.998 6.38997 82.8027 5.94727C82.6139 5.49805 82.5195 4.9707 82.5195 4.36523C82.5195 3.55794 82.7116 2.86784 83.0957 2.29492C83.4863 1.72201 84.0332 1.28255 84.7363 0.976562C85.446 0.670573 86.2728 0.517578 87.2168 0.517578C87.9655 0.517578 88.6686 0.595703 89.3262 0.751953C89.9902 0.908203 90.6413 1.12956 91.2793 1.41602L90.5371 3.30078C89.9512 3.0599 89.3815 2.86784 88.8281 2.72461C88.2812 2.58138 87.7214 2.50977 87.1484 2.50977C86.6536 2.50977 86.2337 2.58464 85.8887 2.73438C85.5436 2.88411 85.2799 3.0957 85.0977 3.36914C84.9219 3.63607 84.834 3.95508 84.834 4.32617C84.834 4.74284 84.9349 5.0944 85.1367 5.38086C85.3451 5.66081 85.6641 5.91797 86.0938 6.15234C86.5299 6.38672 87.0898 6.64714 87.7734 6.93359C88.5612 7.25911 89.2285 7.60091 89.7754 7.95898C90.3288 8.31706 90.752 8.74674 91.0449 9.24805C91.3379 9.74284 91.4844 10.3646 91.4844 11.1133ZM109.586 15L108.189 11.0352H102.73L101.334 15H98.8633L104.176 0.664062H106.773L112.076 15H109.586ZM107.584 9.02344L106.227 5.11719C106.174 4.94792 106.1 4.71029 106.002 4.4043C105.904 4.0918 105.807 3.77604 105.709 3.45703C105.611 3.13151 105.53 2.85807 105.465 2.63672C105.4 2.90365 105.318 3.20312 105.221 3.53516C105.13 3.86068 105.038 4.16667 104.947 4.45312C104.863 4.73958 104.798 4.96094 104.752 5.11719L103.385 9.02344H107.584ZM124.611 0.722656C126.454 0.722656 127.798 1.10026 128.645 1.85547C129.491 2.61068 129.914 3.66862 129.914 5.0293C129.914 5.64779 129.816 6.23698 129.621 6.79688C129.432 7.35026 129.12 7.8418 128.684 8.27148C128.247 8.69466 127.671 9.02995 126.955 9.27734C126.245 9.52474 125.37 9.64844 124.328 9.64844H122.805V15H120.461V0.722656H124.611ZM124.455 2.66602H122.805V7.69531H124.084C124.82 7.69531 125.445 7.61068 125.959 7.44141C126.473 7.26562 126.864 6.98893 127.131 6.61133C127.398 6.23372 127.531 5.73568 127.531 5.11719C127.531 4.29036 127.281 3.67513 126.779 3.27148C126.285 2.86784 125.51 2.66602 124.455 2.66602ZM159.994 15L158.236 10.4688H152.514L150.766 15H149.086L154.672 0.664062H156.166L161.713 15H159.994ZM157.738 8.99414L156.068 4.49219C156.029 4.375 155.964 4.18294 155.873 3.91602C155.788 3.64909 155.701 3.3724 155.609 3.08594C155.518 2.79948 155.443 2.56836 155.385 2.39258C155.32 2.65951 155.248 2.92643 155.17 3.19336C155.098 3.45378 155.027 3.69792 154.955 3.92578C154.883 4.14714 154.822 4.33594 154.77 4.49219L153.07 8.99414H157.738ZM176.875 12.0703C176.875 12.7539 176.702 13.3301 176.357 13.7988C176.019 14.2611 175.531 14.6094 174.893 14.8438C174.261 15.0781 173.506 15.1953 172.627 15.1953C171.878 15.1953 171.23 15.1367 170.684 15.0195C170.137 14.9023 169.658 14.7363 169.248 14.5215V13.0273C169.684 13.2422 170.205 13.4375 170.811 13.6133C171.416 13.7891 172.035 13.877 172.666 13.877C173.59 13.877 174.261 13.7272 174.678 13.4277C175.094 13.1283 175.303 12.7214 175.303 12.207C175.303 11.9141 175.218 11.6569 175.049 11.4355C174.886 11.2077 174.609 10.9896 174.219 10.7812C173.828 10.5664 173.288 10.332 172.598 10.0781C171.914 9.81771 171.322 9.56055 170.82 9.30664C170.326 9.04622 169.941 8.73047 169.668 8.35938C169.401 7.98828 169.268 7.50651 169.268 6.91406C169.268 6.00911 169.632 5.31576 170.361 4.83398C171.097 4.3457 172.061 4.10156 173.252 4.10156C173.896 4.10156 174.499 4.16667 175.059 4.29688C175.625 4.42057 176.152 4.58984 176.641 4.80469L176.094 6.10352C175.651 5.91471 175.179 5.75521 174.678 5.625C174.176 5.49479 173.665 5.42969 173.145 5.42969C172.396 5.42969 171.82 5.55339 171.416 5.80078C171.019 6.04818 170.82 6.38672 170.82 6.81641C170.82 7.14844 170.911 7.42188 171.094 7.63672C171.283 7.85156 171.582 8.05339 171.992 8.24219C172.402 8.43099 172.943 8.65234 173.613 8.90625C174.284 9.15365 174.863 9.41081 175.352 9.67773C175.84 9.93815 176.214 10.2572 176.475 10.6348C176.742 11.0059 176.875 11.4844 176.875 12.0703ZM192.906 12.0703C192.906 12.7539 192.734 13.3301 192.389 13.7988C192.05 14.2611 191.562 14.6094 190.924 14.8438C190.292 15.0781 189.537 15.1953 188.658 15.1953C187.91 15.1953 187.262 15.1367 186.715 15.0195C186.168 14.9023 185.689 14.7363 185.279 14.5215V13.0273C185.715 13.2422 186.236 13.4375 186.842 13.6133C187.447 13.7891 188.066 13.877 188.697 13.877C189.622 13.877 190.292 13.7272 190.709 13.4277C191.126 13.1283 191.334 12.7214 191.334 12.207C191.334 11.9141 191.249 11.6569 191.08 11.4355C190.917 11.2077 190.641 10.9896 190.25 10.7812C189.859 10.5664 189.319 10.332 188.629 10.0781C187.945 9.81771 187.353 9.56055 186.852 9.30664C186.357 9.04622 185.973 8.73047 185.699 8.35938C185.432 7.98828 185.299 7.50651 185.299 6.91406C185.299 6.00911 185.663 5.31576 186.393 4.83398C187.128 4.3457 188.092 4.10156 189.283 4.10156C189.928 4.10156 190.53 4.16667 191.09 4.29688C191.656 4.42057 192.184 4.58984 192.672 4.80469L192.125 6.10352C191.682 5.91471 191.21 5.75521 190.709 5.625C190.208 5.49479 189.697 5.42969 189.176 5.42969C188.427 5.42969 187.851 5.55339 187.447 5.80078C187.05 6.04818 186.852 6.38672 186.852 6.81641C186.852 7.14844 186.943 7.42188 187.125 7.63672C187.314 7.85156 187.613 8.05339 188.023 8.24219C188.434 8.43099 188.974 8.65234 189.645 8.90625C190.315 9.15365 190.895 9.41081 191.383 9.67773C191.871 9.93815 192.245 10.2572 192.506 10.6348C192.773 11.0059 192.906 11.4844 192.906 12.0703ZM203.635 4.29688V15H202.014V4.29688H203.635ZM202.844 0.292969C203.111 0.292969 203.339 0.380859 203.527 0.556641C203.723 0.725911 203.82 0.992839 203.82 1.35742C203.82 1.71549 203.723 1.98242 203.527 2.1582C203.339 2.33398 203.111 2.42188 202.844 2.42188C202.564 2.42188 202.329 2.33398 202.141 2.1582C201.958 1.98242 201.867 1.71549 201.867 1.35742C201.867 0.992839 201.958 0.725911 202.141 0.556641C202.329 0.380859 202.564 0.292969 202.844 0.292969ZM220.496 12.0703C220.496 12.7539 220.324 13.3301 219.979 13.7988C219.64 14.2611 219.152 14.6094 218.514 14.8438C217.882 15.0781 217.127 15.1953 216.248 15.1953C215.499 15.1953 214.852 15.1367 214.305 15.0195C213.758 14.9023 213.279 14.7363 212.869 14.5215V13.0273C213.305 13.2422 213.826 13.4375 214.432 13.6133C215.037 13.7891 215.656 13.877 216.287 13.877C217.212 13.877 217.882 13.7272 218.299 13.4277C218.715 13.1283 218.924 12.7214 218.924 12.207C218.924 11.9141 218.839 11.6569 218.67 11.4355C218.507 11.2077 218.23 10.9896 217.84 10.7812C217.449 10.5664 216.909 10.332 216.219 10.0781C215.535 9.81771 214.943 9.56055 214.441 9.30664C213.947 9.04622 213.562 8.73047 213.289 8.35938C213.022 7.98828 212.889 7.50651 212.889 6.91406C212.889 6.00911 213.253 5.31576 213.982 4.83398C214.718 4.3457 215.682 4.10156 216.873 4.10156C217.518 4.10156 218.12 4.16667 218.68 4.29688C219.246 4.42057 219.773 4.58984 220.262 4.80469L219.715 6.10352C219.272 5.91471 218.8 5.75521 218.299 5.625C217.798 5.49479 217.286 5.42969 216.766 5.42969C216.017 5.42969 215.441 5.55339 215.037 5.80078C214.64 6.04818 214.441 6.38672 214.441 6.81641C214.441 7.14844 214.533 7.42188 214.715 7.63672C214.904 7.85156 215.203 8.05339 215.613 8.24219C216.023 8.43099 216.564 8.65234 217.234 8.90625C217.905 9.15365 218.484 9.41081 218.973 9.67773C219.461 9.93815 219.835 10.2572 220.096 10.6348C220.363 11.0059 220.496 11.4844 220.496 12.0703ZM233.061 13.8672C233.327 13.8672 233.601 13.8444 233.881 13.7988C234.161 13.7533 234.389 13.6979 234.564 13.6328V14.8926C234.376 14.9772 234.112 15.0488 233.773 15.1074C233.441 15.166 233.116 15.1953 232.797 15.1953C232.23 15.1953 231.716 15.0977 231.254 14.9023C230.792 14.7005 230.421 14.362 230.141 13.8867C229.867 13.4115 229.73 12.7539 229.73 11.9141V5.56641H228.207V4.77539L229.74 4.14062L230.385 1.81641H231.361V4.29688H234.496V5.56641H231.361V11.8652C231.361 12.5358 231.514 13.0371 231.82 13.3691C232.133 13.7012 232.546 13.8672 233.061 13.8672ZM247.236 4.12109C248.512 4.12109 249.46 4.40755 250.078 4.98047C250.697 5.55339 251.006 6.4681 251.006 7.72461V15H249.824L249.512 13.418H249.434C249.134 13.8086 248.822 14.1374 248.496 14.4043C248.171 14.6647 247.793 14.8633 247.363 15C246.94 15.1302 246.419 15.1953 245.801 15.1953C245.15 15.1953 244.57 15.0814 244.062 14.8535C243.561 14.6257 243.164 14.2806 242.871 13.8184C242.585 13.3561 242.441 12.7702 242.441 12.0605C242.441 10.9928 242.865 10.1725 243.711 9.59961C244.557 9.02669 245.846 8.71419 247.578 8.66211L249.424 8.58398V7.92969C249.424 7.00521 249.225 6.35742 248.828 5.98633C248.431 5.61523 247.871 5.42969 247.148 5.42969C246.589 5.42969 246.055 5.51107 245.547 5.67383C245.039 5.83659 244.557 6.02865 244.102 6.25L243.604 5.01953C244.085 4.77214 244.639 4.56055 245.264 4.38477C245.889 4.20898 246.546 4.12109 247.236 4.12109ZM249.404 9.72656L247.773 9.79492C246.439 9.84701 245.498 10.0651 244.951 10.4492C244.404 10.8333 244.131 11.377 244.131 12.0801C244.131 12.6921 244.316 13.1445 244.688 13.4375C245.059 13.7305 245.55 13.877 246.162 13.877C247.113 13.877 247.891 13.6133 248.496 13.0859C249.102 12.5586 249.404 11.7676 249.404 10.7129V9.72656ZM265.914 4.10156C267.184 4.10156 268.144 4.41406 268.795 5.03906C269.446 5.65755 269.771 6.65365 269.771 8.02734V15H268.17V8.13477C268.17 7.24284 267.965 6.57552 267.555 6.13281C267.151 5.6901 266.529 5.46875 265.689 5.46875C264.505 5.46875 263.671 5.80404 263.189 6.47461C262.708 7.14518 262.467 8.11849 262.467 9.39453V15H260.846V4.29688H262.154L262.398 5.83984H262.486C262.714 5.46224 263.004 5.14648 263.355 4.89258C263.707 4.63216 264.101 4.43685 264.537 4.30664C264.973 4.16992 265.432 4.10156 265.914 4.10156ZM283.068 13.8672C283.335 13.8672 283.609 13.8444 283.889 13.7988C284.169 13.7533 284.396 13.6979 284.572 13.6328V14.8926C284.383 14.9772 284.12 15.0488 283.781 15.1074C283.449 15.166 283.124 15.1953 282.805 15.1953C282.238 15.1953 281.724 15.0977 281.262 14.9023C280.799 14.7005 280.428 14.362 280.148 13.8867C279.875 13.4115 279.738 12.7539 279.738 11.9141V5.56641H278.215V4.77539L279.748 4.14062L280.393 1.81641H281.369V4.29688H284.504V5.56641H281.369V11.8652C281.369 12.5358 281.522 13.0371 281.828 13.3691C282.141 13.7012 282.554 13.8672 283.068 13.8672Z" fill="#4A239E"/>
</svg>
